<?xml version="1.0" encoding="utf-8"?>
<!-- Generator: Adobe Illustrator 25.2.0, SVG Export Plug-In . SVG Version: 6.00 Build 0)  -->
<svg version="1.1" id="Layer_1" xmlns="http://www.w3.org/2000/svg" xmlns:xlink="http://www.w3.org/1999/xlink" x="0px" y="0px"
	 viewBox="0 0 1125 2436" style="enable-background:new 0 0 1125 2436;" xml:space="preserve">
<style type="text/css">
	.st0{fill:#212B46;stroke:#000000;stroke-miterlimit:10;}
	.st1{fill:#1F1D3A;stroke:#231F20;stroke-miterlimit:10;}
	.st2{fill:#F9F9F9;stroke:#231F20;stroke-miterlimit:10;}
	.st3{fill:#C24D62;stroke:#231F20;stroke-miterlimit:10;}
</style>
<g>
	<rect x="-0.5" y="0.5" class="st0" width="1125" height="722"/>
</g>
<g>
	<g>
		<path class="st1" d="M746.94,46.33c0,0,0,11.24-11.24,11.24c-11.33,0-11.24-11.24-11.24-11.24s-0.91,0,11.19,0
			C741.87,46.33,746.94,46.33,746.94,46.33z"/>
		
			<rect x="721.65" y="71.65" transform="matrix(-1.836970e-16 1 -1 -1.836970e-16 808.4766 -662.9269)" class="st1" width="28.11" height="2.25"/>
	</g>
	<circle class="st1" cx="734.66" cy="148.66" r="61.84"/>
	<g>
		<path class="st1" d="M837,159.91c0,0-11.24,0-11.24-11.24c0-11.33,11.24-11.24,11.24-11.24s0-0.91,0,11.19
			C837,154.83,837,159.91,837,159.91z"/>
		
			<rect x="796.5" y="147.54" transform="matrix(-1 -1.224647e-16 1.224647e-16 -1 1621.0989 297.3279)" class="st1" width="28.11" height="2.25"/>
	</g>
	<g>
		<path class="st1" d="M811.5,90.88c0,0-7.95,7.95-15.89,0.01c-8.01-8.01,0.01-15.89,0.01-15.89s-0.64-0.64,7.91,7.91
			C807.91,87.29,811.5,90.88,811.5,90.88z"/>
		
			<rect x="770.79" y="100.51" transform="matrix(-0.7071 0.7071 -0.7071 -0.7071 1411.679 -381.4691)" class="st1" width="28.11" height="2.25"/>
	</g>
	<g>
		<path class="st1" d="M632.32,138.55c0,0,11.24,0,11.24,11.24c0,11.33-11.24,11.24-11.24,11.24s0,0.91,0-11.19
			C632.32,143.62,632.32,138.55,632.32,138.55z"/>
		<rect x="644.72" y="148.66" class="st1" width="28.11" height="2.25"/>
	</g>
	<g>
		<path class="st1" d="M746.23,251c0,0,0-11.24-11.24-11.24c-11.33,0-11.24,11.24-11.24,11.24s-0.91,0,11.19,0
			C741.15,251,746.23,251,746.23,251z"/>
		
			<rect x="720.93" y="223.43" transform="matrix(6.123234e-17 -1 1 6.123234e-17 510.4339 959.5399)" class="st1" width="28.11" height="2.25"/>
	</g>
	<circle class="st2" cx="736.95" cy="185.36" r="5.06"/>
	<circle class="st2" cx="767.3" cy="152.75" r="5.06"/>
	<circle class="st2" cx="772.93" cy="113.4" r="5.06"/>
	<circle class="st2" cx="724.58" cy="130.27" r="5.06"/>
	<circle class="st2" cx="687.48" cy="146.01" r="5.06"/>
	<circle class="st2" cx="720.08" cy="166.25" r="5.06"/>
	<circle class="st2" cx="760.56" cy="131.39" r="5.06"/>
	<circle class="st2" cx="708.68" cy="141.04" r="2.98"/>
	<circle class="st2" cx="725.37" cy="101.53" r="2.98"/>
	<circle class="st2" cx="784.96" cy="144.25" r="2.98"/>
	<circle class="st2" cx="753.48" cy="198.21" r="2.98"/>
	<circle class="st2" cx="728.42" cy="152.92" r="1.53"/>
	<circle class="st2" cx="746.73" cy="126.26" r="1.53"/>
	<circle class="st2" cx="711.88" cy="186.97" r="1.53"/>
	<circle class="st2" cx="693.89" cy="127.38" r="1.53"/>
	<circle class="st2" cx="750.11" cy="165.61" r="1.53"/>
	<circle class="st2" cx="739.99" cy="113.89" r="1.53"/>
	<g>
		<path class="st1" d="M661.39,209.23c0,0,7.95-7.95,15.89-0.01c8.01,8.01-0.01,15.89-0.01,15.89s0.64,0.64-7.91-7.91
			C664.98,212.82,661.39,209.23,661.39,209.23z"/>
		
			<rect x="673.98" y="197.35" transform="matrix(0.7071 -0.7071 0.7071 0.7071 61.1772 544.6484)" class="st1" width="28.11" height="2.25"/>
	</g>
	<g>
		<path class="st1" d="M810.07,208.27c0,0-7.95-7.95-15.89-0.01c-8.01,8.01,0.01,15.89,0.01,15.89s-0.64,0.64,7.91-7.91
			C806.48,211.86,810.07,208.27,810.07,208.27z"/>
		
			<rect x="769.37" y="196.39" transform="matrix(-0.7071 -0.7071 0.7071 -0.7071 1197.7201 891.1482)" class="st1" width="28.11" height="2.25"/>
	</g>
	<g>
		<path class="st1" d="M659.14,88.97c0,0,7.95,7.95,15.89,0.01c8.01-8.01-0.01-15.89-0.01-15.89s0.64-0.64-7.91,7.91
			C662.73,85.38,659.14,88.97,659.14,88.97z"/>
		
			<rect x="671.74" y="98.59" transform="matrix(0.7071 0.7071 -0.7071 0.7071 271.3745 -455.7191)" class="st1" width="28.11" height="2.25"/>
	</g>
	<circle class="st2" cx="779.67" cy="176.36" r="5.06"/>
	<circle class="st2" cx="698.39" cy="185.85" r="2.98"/>
	<path class="st2" d="M770.34,185.85h2.98c0,1.63-1.34,2.98-2.98,2.98s-2.98-1.34-2.98-2.98c0-1.63,1.34-2.98,2.98-2.98
		c0.91,0,1.77,0.42,2.33,1.13L770.34,185.85z"/>
	<circle class="st2" cx="700.97" cy="110.03" r="5.06"/>
</g>
<g>
	<g>
		<path class="st1" d="M958.52,268.33c0,0,0,7.8-7.79,7.8c-7.86,0-7.79-7.8-7.79-7.8s-0.63,0,7.76,0
			C955,268.33,958.52,268.33,958.52,268.33z"/>
		
			<rect x="940.97" y="285.9" transform="matrix(-1.836970e-16 1 -1 -1.836970e-16 1237.3969 -664.0446)" class="st1" width="19.5" height="1.56"/>
	</g>
	<circle class="st1" cx="950" cy="339.33" r="42.9"/>
	<g>
		<path class="st1" d="M1021,347.13c0,0-7.8,0-7.8-7.79c0-7.86,7.8-7.79,7.8-7.79s0-0.63,0,7.76C1021,343.6,1021,347.13,1021,347.13
			z"/>
		
			<rect x="992.9" y="338.55" transform="matrix(-1 -1.224647e-16 1.224647e-16 -1 2005.2964 678.6522)" class="st1" width="19.5" height="1.56"/>
	</g>
	<g>
		<path class="st1" d="M1003.3,299.24c0,0-5.52,5.52-11.03,0c-5.56-5.56,0-11.03,0-11.03s-0.44-0.44,5.49,5.49
			C1000.81,296.75,1003.3,299.24,1003.3,299.24z"/>
		
			<rect x="975.06" y="305.92" transform="matrix(-0.7071 0.7071 -0.7071 -0.7071 1898.0516 -172.8033)" class="st1" width="19.5" height="1.56"/>
	</g>
	<g>
		<path class="st1" d="M879,332.31c0,0,7.8,0,7.8,7.79c0,7.86-7.8,7.79-7.8,7.79s0,0.63,0-7.76C879,335.83,879,332.31,879,332.31z"
			/>
		<rect x="887.6" y="339.33" class="st1" width="19.5" height="1.56"/>
	</g>
	<g>
		<path class="st1" d="M958.02,410.32c0,0,0-7.8-7.79-7.8c-7.86,0-7.79,7.8-7.79,7.8s-0.63,0,7.76,0
			C954.5,410.32,958.02,410.32,958.02,410.32z"/>
		
			<rect x="940.47" y="391.2" transform="matrix(6.123234e-17 -1 1 6.123234e-17 558.2487 1342.2008)" class="st1" width="19.5" height="1.56"/>
	</g>
	<circle class="st2" cx="951.59" cy="364.78" r="3.51"/>
	<circle class="st2" cx="972.65" cy="342.16" r="3.51"/>
	<circle class="st2" cx="976.55" cy="314.86" r="3.51"/>
	<circle class="st2" cx="943.01" cy="326.56" r="3.51"/>
	<circle class="st2" cx="917.27" cy="337.48" r="3.51"/>
	<circle class="st2" cx="939.89" cy="351.52" r="3.51"/>
	<circle class="st2" cx="967.97" cy="327.34" r="3.51"/>
	<circle class="st2" cx="931.97" cy="334.04" r="2.07"/>
	<circle class="st2" cx="943.55" cy="306.62" r="2.07"/>
	<circle class="st2" cx="984.89" cy="336.26" r="2.07"/>
	<circle class="st2" cx="963.05" cy="373.7" r="2.07"/>
	<circle class="st2" cx="945.67" cy="342.28" r="1.06"/>
	<circle class="st2" cx="958.37" cy="323.78" r="1.06"/>
	<circle class="st2" cx="934.19" cy="365.9" r="1.06"/>
	<circle class="st2" cx="921.71" cy="324.56" r="1.06"/>
	<circle class="st2" cx="960.71" cy="351.08" r="1.06"/>
	<circle class="st2" cx="953.69" cy="315.2" r="1.06"/>
	<g>
		<path class="st1" d="M899.16,381.34c0,0,5.52-5.52,11.03,0c5.56,5.56,0,11.03,0,11.03s0.44,0.44-5.49-5.49
			C901.65,383.83,899.16,381.34,899.16,381.34z"/>
		
			<rect x="907.9" y="373.11" transform="matrix(0.7071 -0.7071 0.7071 0.7071 4.3975 758.3866)" class="st1" width="19.5" height="1.56"/>
	</g>
	<g>
		<path class="st1" d="M1002.32,380.68c0,0-5.52-5.52-11.03,0c-5.56,5.56,0,11.03,0,11.03s-0.44,0.44,5.49-5.49
			C999.83,383.17,1002.32,380.68,1002.32,380.68z"/>
		
			<rect x="974.08" y="372.44" transform="matrix(-0.7071 -0.7071 0.7071 -0.7071 1415.5939 1332.798)" class="st1" width="19.5" height="1.56"/>
	</g>
	<g>
		<path class="st1" d="M897.6,297.91c0,0,5.52,5.52,11.03,0c5.56-5.56,0-11.03,0-11.03s0.44-0.44-5.49,5.49
			C900.09,295.42,897.6,297.91,897.6,297.91z"/>
		
			<rect x="906.34" y="304.59" transform="matrix(0.7071 0.7071 -0.7071 0.7071 484.2457 -558.3347)" class="st1" width="19.5" height="1.56"/>
	</g>
	<circle class="st2" cx="981.23" cy="358.54" r="3.51"/>
	<circle class="st2" cx="924.83" cy="365.12" r="2.07"/>
	<path class="st2" d="M974.75,365.12h2.07c0,1.13-0.93,2.07-2.07,2.07s-2.07-0.93-2.07-2.07c0-1.13,0.93-2.07,2.07-2.07
		c0.63,0,1.23,0.29,1.62,0.78L974.75,365.12z"/>
	<circle class="st2" cx="926.63" cy="312.52" r="3.51"/>
</g>
<g>
	<g>
		<path class="st3" d="M175.98,451.32c0,0,0,13.74-13.73,13.74c-13.84,0-13.73-13.74-13.73-13.74s-1.11,0,13.67,0
			C169.78,451.32,175.98,451.32,175.98,451.32z"/>
		
			<rect x="145.08" y="482.26" transform="matrix(-1.836970e-16 1 -1 -1.836970e-16 645.882 321.388)" class="st3" width="34.34" height="2.75"/>
	</g>
	<circle class="st3" cx="160.97" cy="576.35" r="75.55"/>
	<g>
		<path class="st3" d="M286,590.09c0,0-13.74,0-13.74-13.73c0-13.84,13.74-13.73,13.74-13.73s0-1.11,0,13.67
			C286,583.88,286,590.09,286,590.09z"/>
		
			<rect x="236.52" y="574.98" transform="matrix(-1 -1.224647e-16 1.224647e-16 -1 507.3787 1152.6992)" class="st3" width="34.34" height="2.75"/>
	</g>
	<g>
		<path class="st3" d="M254.84,505.76c0,0-9.71,9.71-19.42,0.01c-9.79-9.79,0.01-19.42,0.01-19.42s-0.78-0.78,9.67,9.67
			C250.46,501.37,254.84,505.76,254.84,505.76z"/>
		
			<rect x="205.12" y="517.52" transform="matrix(-0.7071 0.7071 -0.7071 -0.7071 746.3765 728.6251)" class="st3" width="34.34" height="2.75"/>
	</g>
	<g>
		<path class="st3" d="M35.95,563.99c0,0,13.74,0,13.74,13.73c0,13.84-13.74,13.73-13.74,13.73s0,1.11,0-13.67
			C35.95,570.19,35.95,563.99,35.95,563.99z"/>
		<rect x="51.09" y="576.35" class="st3" width="34.34" height="2.75"/>
	</g>
	<g>
		<path class="st3" d="M175.11,701.37c0,0,0-13.74-13.73-13.74c-13.84,0-13.73,13.74-13.73,13.74s-1.11,0,13.67,0
			C168.91,701.37,175.11,701.37,175.11,701.37z"/>
		
			<rect x="144.2" y="667.69" transform="matrix(6.123234e-17 -1 1 6.123234e-17 -507.6906 830.4377)" class="st3" width="34.34" height="2.75"/>
	</g>
	<circle class="st3" cx="163.77" cy="621.18" r="6.18"/>
	<circle class="st3" cx="200.86" cy="581.35" r="6.18"/>
	<circle class="st3" cx="207.72" cy="533.27" r="6.18"/>
	<circle class="st3" cx="148.66" cy="553.88" r="6.18"/>
	<circle class="st3" cx="103.33" cy="573.1" r="6.18"/>
	<circle class="st3" cx="143.17" cy="597.83" r="6.18"/>
	<circle class="st3" cx="192.62" cy="555.25" r="6.18"/>
	<circle class="st3" cx="129.23" cy="567.04" r="3.64"/>
	<circle class="st3" cx="149.63" cy="518.76" r="3.64"/>
	<circle class="st3" cx="222.43" cy="570.96" r="3.64"/>
	<circle class="st3" cx="183.97" cy="636.89" r="3.64"/>
	<circle class="st3" cx="153.35" cy="581.54" r="1.86"/>
	<circle class="st3" cx="175.72" cy="548.98" r="1.86"/>
	<circle class="st3" cx="133.14" cy="623.15" r="1.86"/>
	<circle class="st3" cx="111.17" cy="550.35" r="1.86"/>
	<circle class="st3" cx="179.85" cy="597.05" r="1.86"/>
	<circle class="st3" cx="167.48" cy="533.87" r="1.86"/>
	<g>
		<path class="st3" d="M71.46,650.34c0,0,9.71-9.71,19.42-0.01c9.79,9.79-0.01,19.42-0.01,19.42s0.78,0.78-9.67-9.67
			C75.84,654.73,71.46,650.34,71.46,650.34z"/>
		
			<rect x="86.85" y="635.83" transform="matrix(0.7071 -0.7071 0.7071 0.7071 -420.1078 260.1831)" class="st3" width="34.34" height="2.75"/>
	</g>
	<g>
		<path class="st3" d="M253.11,649.17c0,0-9.71-9.71-19.42-0.01c-9.79,9.79,0.01,19.42,0.01,19.42s-0.78,0.78,9.67-9.67
			C248.72,653.56,253.11,649.17,253.11,649.17z"/>
		
			<rect x="203.38" y="634.66" transform="matrix(-0.7071 -0.7071 0.7071 -0.7071 -73.2451 1241.7317)" class="st3" width="34.34" height="2.75"/>
	</g>
	<g>
		<path class="st3" d="M68.71,503.42c0,0,9.71,9.71,19.42,0.01c9.79-9.79-0.01-19.42-0.01-19.42s0.78-0.78-9.67,9.67
			C73.09,499.03,68.71,503.42,68.71,503.42z"/>
		
			<rect x="84.1" y="515.18" transform="matrix(0.7071 0.7071 -0.7071 0.7071 394.9182 79.6875)" class="st3" width="34.34" height="2.75"/>
	</g>
	<circle class="st3" cx="215.97" cy="610.19" r="6.18"/>
	<circle class="st3" cx="116.66" cy="621.78" r="3.64"/>
	<path class="st3" d="M204.57,621.78h3.64c0,2-1.64,3.64-3.64,3.64c-2,0-3.64-1.64-3.64-3.64s1.64-3.64,3.64-3.64
		c1.11,0,2.16,0.51,2.85,1.38L204.57,621.78z"/>
	<circle class="st3" cx="119.82" cy="529.15" r="6.18"/>
</g>
<g>
	<g>
		<path class="st3" d="M918.98,54.33c0,0,0,13.74-13.73,13.74c-13.84,0-13.73-13.74-13.73-13.74s-1.11,0,13.67,0
			C912.78,54.33,918.98,54.33,918.98,54.33z"/>
		
			<rect x="888.08" y="85.26" transform="matrix(-1.836970e-16 1 -1 -1.836970e-16 991.882 -818.6085)" class="st3" width="34.34" height="2.75"/>
	</g>
	<circle class="st3" cx="903.97" cy="179.35" r="75.55"/>
	<g>
		<path class="st3" d="M1029,193.09c0,0-13.74,0-13.74-13.73c0-13.84,13.74-13.73,13.74-13.73s0-1.11,0,13.67
			C1029,186.88,1029,193.09,1029,193.09z"/>
		
			<rect x="979.52" y="177.98" transform="matrix(-1 -1.224647e-16 1.224647e-16 -1 1993.3751 358.7027)" class="st3" width="34.34" height="2.75"/>
	</g>
	<g>
		<path class="st3" d="M997.84,108.76c0,0-9.71,9.71-19.42,0.01c-9.79-9.79,0.01-19.42,0.01-19.42s-0.78-0.78,9.67,9.67
			C993.46,104.37,997.84,108.76,997.84,108.76z"/>
		
			<rect x="948.11" y="120.52" transform="matrix(-0.7071 0.7071 -0.7071 -0.7071 1734.0337 -474.4723)" class="st3" width="34.34" height="2.75"/>
	</g>
	<g>
		<path class="st3" d="M778.95,166.99c0,0,13.74,0,13.74,13.73c0,13.84-13.74,13.73-13.74,13.73s0,1.11,0-13.67
			C778.95,173.19,778.95,166.99,778.95,166.99z"/>
		<rect x="794.09" y="179.35" class="st3" width="34.34" height="2.75"/>
	</g>
	<g>
		<path class="st3" d="M918.11,304.38c0,0,0-13.74-13.73-13.74c-13.84,0-13.73,13.74-13.73,13.74s-1.11,0,13.67,0
			C911.9,304.38,918.11,304.38,918.11,304.38z"/>
		
			<rect x="887.2" y="270.69" transform="matrix(6.123234e-17 -1 1 6.123234e-17 632.3059 1176.4377)" class="st3" width="34.34" height="2.75"/>
	</g>
	<circle class="st3" cx="906.77" cy="224.18" r="6.18"/>
	<circle class="st3" cx="943.85" cy="184.35" r="6.18"/>
	<circle class="st3" cx="950.72" cy="136.27" r="6.18"/>
	<circle class="st3" cx="891.66" cy="156.88" r="6.18"/>
	<circle class="st3" cx="846.33" cy="176.11" r="6.18"/>
	<circle class="st3" cx="886.17" cy="200.83" r="6.18"/>
	<circle class="st3" cx="935.61" cy="158.25" r="6.18"/>
	<circle class="st3" cx="872.23" cy="170.04" r="3.64"/>
	<circle class="st3" cx="892.63" cy="121.76" r="3.64"/>
	<circle class="st3" cx="965.42" cy="173.96" r="3.64"/>
	<circle class="st3" cx="926.96" cy="239.89" r="3.64"/>
	<circle class="st3" cx="896.35" cy="184.54" r="1.86"/>
	<circle class="st3" cx="918.72" cy="151.98" r="1.86"/>
	<circle class="st3" cx="876.14" cy="226.15" r="1.86"/>
	<circle class="st3" cx="854.17" cy="153.35" r="1.86"/>
	<circle class="st3" cx="922.84" cy="200.06" r="1.86"/>
	<circle class="st3" cx="910.48" cy="136.87" r="1.86"/>
	<g>
		<path class="st3" d="M814.45,253.34c0,0,9.71-9.71,19.42-0.01c9.79,9.79-0.01,19.42-0.01,19.42s0.78,0.78-9.67-9.67
			C818.84,257.73,814.45,253.34,814.45,253.34z"/>
		
			<rect x="829.84" y="238.83" transform="matrix(0.7071 -0.7071 0.7071 0.7071 78.2315 669.2841)" class="st3" width="34.34" height="2.75"/>
	</g>
	<g>
		<path class="st3" d="M996.11,252.17c0,0-9.71-9.71-19.42-0.01c-9.79,9.79,0.01,19.42,0.01,19.42s-0.78,0.78,9.67-9.67
			C991.72,256.56,996.11,252.17,996.11,252.17z"/>
		
			<rect x="946.38" y="237.66" transform="matrix(-0.7071 -0.7071 0.7071 -0.7071 1475.8524 1089.3923)" class="st3" width="34.34" height="2.75"/>
	</g>
	<g>
		<path class="st3" d="M811.71,106.42c0,0,9.71,9.71,19.42,0.01c9.79-9.79-0.01-19.42-0.01-19.42s0.78-0.78-9.67,9.67
			C816.09,102.03,811.71,106.42,811.71,106.42z"/>
		
			<rect x="827.1" y="118.18" transform="matrix(0.7071 0.7071 -0.7071 0.7071 331.8172 -561.9697)" class="st3" width="34.34" height="2.75"/>
	</g>
	<circle class="st3" cx="958.96" cy="213.19" r="6.18"/>
	<circle class="st3" cx="859.66" cy="224.78" r="3.64"/>
	<path class="st3" d="M947.57,224.78h3.64c0,2-1.64,3.64-3.64,3.64s-3.64-1.64-3.64-3.64c0-2,1.64-3.64,3.64-3.64
		c1.11,0,2.16,0.51,2.85,1.38L947.57,224.78z"/>
	<circle class="st3" cx="862.82" cy="132.15" r="6.18"/>
</g>
<g>
	<g>
		<path class="st3" d="M787.98,371.33c0,0,0,13.74-13.73,13.74c-13.84,0-13.73-13.74-13.73-13.74s-1.11,0,13.67,0
			C781.78,371.33,787.98,371.33,787.98,371.33z"/>
		
			<rect x="757.08" y="402.26" transform="matrix(-1.836970e-16 1 -1 -1.836970e-16 1177.882 -370.6085)" class="st3" width="34.34" height="2.75"/>
	</g>
	<circle class="st3" cx="772.97" cy="496.35" r="75.55"/>
	<g>
		<path class="st3" d="M898,510.09c0,0-13.74,0-13.74-13.73c0-13.84,13.74-13.73,13.74-13.73s0-1.11,0,13.67
			C898,503.88,898,510.09,898,510.09z"/>
		
			<rect x="848.52" y="494.98" transform="matrix(-1 -1.224647e-16 1.224647e-16 -1 1731.3751 992.7027)" class="st3" width="34.34" height="2.75"/>
	</g>
	<g>
		<path class="st3" d="M866.84,425.76c0,0-9.71,9.71-19.42,0.01c-9.79-9.79,0.01-19.42,0.01-19.42s-0.78-0.78,9.67,9.67
			C862.46,421.37,866.84,425.76,866.84,425.76z"/>
		
			<rect x="817.11" y="437.52" transform="matrix(-0.7071 0.7071 -0.7071 -0.7071 1734.5555 159.3115)" class="st3" width="34.34" height="2.75"/>
	</g>
	<g>
		<path class="st3" d="M647.95,483.99c0,0,13.74,0,13.74,13.73c0,13.84-13.74,13.73-13.74,13.73s0,1.11,0-13.67
			C647.95,490.19,647.95,483.99,647.95,483.99z"/>
		<rect x="663.09" y="496.35" class="st3" width="34.34" height="2.75"/>
	</g>
	<g>
		<path class="st3" d="M787.11,621.38c0,0,0-13.74-13.73-13.74c-13.84,0-13.73,13.74-13.73,13.74s-1.11,0,13.67,0
			C780.9,621.38,787.11,621.38,787.11,621.38z"/>
		
			<rect x="756.2" y="587.69" transform="matrix(6.123234e-17 -1 1 6.123234e-17 184.3059 1362.4377)" class="st3" width="34.34" height="2.75"/>
	</g>
	<circle class="st3" cx="775.77" cy="541.18" r="6.18"/>
	<circle class="st3" cx="812.85" cy="501.35" r="6.18"/>
	<circle class="st3" cx="819.72" cy="453.27" r="6.18"/>
	<circle class="st3" cx="760.66" cy="473.88" r="6.18"/>
	<circle class="st3" cx="715.33" cy="493.11" r="6.18"/>
	<circle class="st3" cx="755.17" cy="517.83" r="6.18"/>
	<circle class="st3" cx="804.61" cy="475.25" r="6.18"/>
	<circle class="st3" cx="741.23" cy="487.04" r="3.64"/>
	<circle class="st3" cx="761.63" cy="438.76" r="3.64"/>
	<circle class="st3" cx="834.42" cy="490.96" r="3.64"/>
	<circle class="st3" cx="795.96" cy="556.89" r="3.64"/>
	<circle class="st3" cx="765.35" cy="501.54" r="1.86"/>
	<circle class="st3" cx="787.72" cy="468.98" r="1.86"/>
	<circle class="st3" cx="745.14" cy="543.15" r="1.86"/>
	<circle class="st3" cx="723.17" cy="470.35" r="1.86"/>
	<circle class="st3" cx="791.84" cy="517.06" r="1.86"/>
	<circle class="st3" cx="779.48" cy="453.87" r="1.86"/>
	<g>
		<path class="st3" d="M683.45,570.34c0,0,9.71-9.71,19.42-0.01c9.79,9.79-0.01,19.42-0.01,19.42s0.78,0.78-9.67-9.67
			C687.84,574.73,683.45,570.34,683.45,570.34z"/>
		
			<rect x="698.84" y="555.83" transform="matrix(0.7071 -0.7071 0.7071 0.7071 -184.2904 669.5002)" class="st3" width="34.34" height="2.75"/>
	</g>
	<g>
		<path class="st3" d="M865.11,569.17c0,0-9.71-9.71-19.42-0.01c-9.79,9.79,0.01,19.42,0.01,19.42s-0.78,0.78,9.67-9.67
			C860.72,573.56,865.11,569.17,865.11,569.17z"/>
		
			<rect x="815.38" y="554.66" transform="matrix(-0.7071 -0.7071 0.7071 -0.7071 1028.0686 1537.9142)" class="st3" width="34.34" height="2.75"/>
	</g>
	<g>
		<path class="st3" d="M680.71,423.42c0,0,9.71,9.71,19.42,0.01c9.79-9.79-0.01-19.42-0.01-19.42s0.78-0.78-9.67,9.67
			C685.09,419.03,680.71,423.42,680.71,423.42z"/>
		
			<rect x="696.1" y="435.18" transform="matrix(0.7071 0.7071 -0.7071 0.7071 517.6011 -376.4915)" class="st3" width="34.34" height="2.75"/>
	</g>
	<circle class="st3" cx="827.96" cy="530.19" r="6.18"/>
	<circle class="st3" cx="728.66" cy="541.78" r="3.64"/>
	<path class="st3" d="M816.57,541.78h3.64c0,2-1.64,3.64-3.64,3.64s-3.64-1.64-3.64-3.64s1.64-3.64,3.64-3.64
		c1.11,0,2.16,0.51,2.85,1.38L816.57,541.78z"/>
	<circle class="st3" cx="731.82" cy="449.15" r="6.18"/>
</g>
<g>
	<g>
		<path class="st1" d="M942.5,564.35c0,0,0,7.8-7.79,7.8c-7.86,0-7.79-7.8-7.79-7.8s-0.63,0,7.76,0
			C938.97,564.35,942.5,564.35,942.5,564.35z"/>
		
			<rect x="924.95" y="581.92" transform="matrix(-1.836970e-16 1 -1 -1.836970e-16 1517.3969 -351.994)" class="st1" width="19.5" height="1.56"/>
	</g>
	<circle class="st1" cx="933.97" cy="635.35" r="42.9"/>
	<g>
		<path class="st1" d="M1004.97,643.15c0,0-7.8,0-7.8-7.79c0-7.86,7.8-7.79,7.8-7.79s0-0.63,0,7.76
			C1004.97,639.63,1004.97,643.15,1004.97,643.15z"/>
		
			<rect x="976.87" y="634.57" transform="matrix(-1 -1.224647e-16 1.224647e-16 -1 1973.2458 1270.7028)" class="st1" width="19.5" height="1.56"/>
	</g>
	<g>
		<path class="st1" d="M987.28,595.26c0,0-5.52,5.52-11.03,0c-5.56-5.56,0-11.03,0-11.03s-0.44-0.44,5.49,5.49
			C984.79,592.77,987.28,595.26,987.28,595.26z"/>
		
			<rect x="959.04" y="601.94" transform="matrix(-0.7071 0.7071 -0.7071 -0.7071 2080.0164 343.875)" class="st1" width="19.5" height="1.56"/>
	</g>
	<g>
		<path class="st1" d="M862.97,628.33c0,0,7.8,0,7.8,7.79c0,7.86-7.8,7.79-7.8,7.79s0,0.63,0-7.76
			C862.97,631.85,862.97,628.33,862.97,628.33z"/>
		<rect x="871.57" y="635.35" class="st1" width="19.5" height="1.56"/>
	</g>
	<g>
		<path class="st1" d="M942,706.35c0,0,0-7.8-7.79-7.8c-7.86,0-7.79,7.8-7.79,7.8s-0.63,0,7.76,0
			C938.48,706.35,942,706.35,942,706.35z"/>
		
			<rect x="924.45" y="687.22" transform="matrix(6.123234e-17 -1 1 6.123234e-17 246.1982 1622.2008)" class="st1" width="19.5" height="1.56"/>
	</g>
	<circle class="st2" cx="935.56" cy="660.81" r="3.51"/>
	<circle class="st2" cx="956.62" cy="638.19" r="3.51"/>
	<circle class="st2" cx="960.52" cy="610.89" r="3.51"/>
	<circle class="st2" cx="926.98" cy="622.59" r="3.51"/>
	<circle class="st2" cx="901.24" cy="633.51" r="3.51"/>
	<circle class="st2" cx="923.86" cy="647.55" r="3.51"/>
	<circle class="st2" cx="951.94" cy="623.37" r="3.51"/>
	<circle class="st2" cx="915.94" cy="630.06" r="2.07"/>
	<circle class="st2" cx="927.53" cy="602.65" r="2.07"/>
	<circle class="st2" cx="968.87" cy="632.29" r="2.07"/>
	<circle class="st2" cx="947.03" cy="669.73" r="2.07"/>
	<circle class="st2" cx="929.64" cy="638.3" r="1.06"/>
	<circle class="st2" cx="942.35" cy="619.81" r="1.06"/>
	<circle class="st2" cx="918.17" cy="661.93" r="1.06"/>
	<circle class="st2" cx="905.69" cy="620.59" r="1.06"/>
	<circle class="st2" cx="944.69" cy="647.11" r="1.06"/>
	<circle class="st2" cx="937.67" cy="611.23" r="1.06"/>
	<g>
		<path class="st1" d="M883.14,677.37c0,0,5.52-5.52,11.03,0c5.56,5.56,0,11.03,0,11.03s0.44,0.44-5.49-5.49
			C885.63,679.86,883.14,677.37,883.14,677.37z"/>
		
			<rect x="891.88" y="669.13" transform="matrix(0.7071 -0.7071 0.7071 0.7071 -209.6176 833.7588)" class="st1" width="19.5" height="1.56"/>
	</g>
	<g>
		<path class="st1" d="M986.29,676.7c0,0-5.52-5.52-11.03,0c-5.56,5.56,0,11.03,0,11.03s-0.44,0.44,5.49-5.49
			C983.8,679.19,986.29,676.7,986.29,676.7z"/>
		
			<rect x="958.05" y="668.47" transform="matrix(-0.7071 -0.7071 0.7071 -0.7071 1178.9155 1826.8132)" class="st1" width="19.5" height="1.56"/>
	</g>
	<g>
		<path class="st1" d="M881.58,593.94c0,0,5.52,5.52,11.03,0c5.56-5.56,0-11.03,0-11.03s0.44-0.44-5.49,5.49
			C884.07,591.44,881.58,593.94,881.58,593.94z"/>
		
			<rect x="890.32" y="600.61" transform="matrix(0.7071 0.7071 -0.7071 0.7071 688.8734 -460.2993)" class="st1" width="19.5" height="1.56"/>
	</g>
	<circle class="st2" cx="965.2" cy="654.57" r="3.51"/>
	<circle class="st2" cx="908.81" cy="661.15" r="2.07"/>
	<path class="st2" d="M958.73,661.15h2.07c0,1.13-0.93,2.07-2.07,2.07s-2.07-0.93-2.07-2.07c0-1.13,0.93-2.07,2.07-2.07
		c0.63,0,1.23,0.29,1.62,0.78L958.73,661.15z"/>
	<circle class="st2" cx="910.6" cy="608.55" r="3.51"/>
</g>
</svg>
